<svg version="1.2" xmlns="http://www.w3.org/2000/svg" viewBox="0 0 1300 150" width="1300" height="150">
	<title>Gerresheimer_Logo_White-svg</title>
	<style>
		.s0 { fill: #ffffff } 
	</style>
	<g id="Layer 1">
		<g id="&lt;Group&gt;">
			<g id="&lt;Group&gt;">
				<path id="&lt;Compound Path&gt;" fill-rule="evenodd" class="s0" d="m156.8 44.4q-4.8 4.8-8.4 10.7c-0.3 0.5-0.6 0.8-0.8 1.1-0.6 0.7-1.3 1-3.2 1h-14.4c3.5 4.7 5.3 10.2 5.3 16.5 0 14.8-10.2 25.7-27 29.9-3 0.8-9.7 1.6-13.2 2-6 0.6-15.9 0.3-18.1 0.1-3-0.2-5.3-0.5-7-0.7-4.8-0.7-9.3-1.8-13.4-3.3-3 0.9-7.5 2.9-7.5 7.3 0 4.6 4.7 7 13.8 7.2l17.4 0.1h10.6l21.4 0.1c27.6 0.2 33.4 13.8 33.4 25.1 0 0.6 0 1.9 0 2.4-0.1 0.8 0.1 1.1-0.4 1.5-0.5 0.3-0.9 0.3-1.9 0.3h-13.2c-0.5 0-1.3-0.2-1.6-0.6-0.2-0.4-0.2-1.2-0.2-1.7 0-0.2 0-1.1 0-1.4 0-4.5-1.9-10.6-18.7-10.8l-18.8-0.1h-12l-14.6-0.1c-2.5 0-6.7-0.1-9-0.4-7.1 2.4-10.6 6.5-10.6 12.1 0 0 0 1.9-0.4 2.3-0.4 0.4-0.9 0.7-1.5 0.7h-12.8c-0.5 0-1.2 0-1.6-0.4-0.4-0.4-0.4-1.2-0.4-1.8 0.5-7.8 5-13.7 12.8-17.2-5.4-3.3-8.3-8.2-8.3-14.1 0-7.6 4.7-13.5 13.3-17-6.4-5.5-9.8-12.9-9.8-21.5 0-18.7 16.4-31.2 41.9-31.7 1.2 0 13 0 13 0q0 0 0.1 0h64.6c1.1 0 1.8 0.8 1.6 1.8q-0.1 0.2-0.4 0.6zm-38.2 29.3c0-11.6-12.6-19.2-33.1-19.2-20.4 0-33.1 7.4-33.1 19.2 0 11.5 12.7 19.5 33.1 19.5 20.5 0 33.1-7.9 33.1-19.5z"/>
				<path id="&lt;Compound Path&gt;" fill-rule="evenodd" class="s0" d="m513.3 89.9v7.6c0 1.2-0.9 2.1-2 2.1h-85.2c1.3 19.5 14.2 30.2 36.3 30.2 17.2 0 29.2-6.8 34.7-19.7 0.3-0.5 0.7-0.9 1.2-1.1q0.8-0.3 1.5 0l11.3 5.1c0.5 0.2 0.9 0.6 1.1 1.1q0.3 0.7 0 1.5c-8.4 18.9-25.7 28.9-50.1 28.9-33.6 0-53.7-18.9-53.7-50.5 0-32.7 19.7-52.3 52.7-52.3 33.2 0 52.2 17.2 52.2 47.1zm-17.8-5c-0.6-17.3-13.4-27.7-34.4-27.7-20.4 0-33.4 10.3-34.9 27.7z"/>
				<path id="&lt;Path&gt;" class="s0" d="m736.9 89.9v50.7c0 1.1-0.9 2-2 2h-13.2c-1.1 0-2-0.9-2-2v-49.4c0-21.7-10-32.7-29.7-32.7-21 0-34.5 14.1-34.5 35.9v46.2c0 1.1-0.9 2-2.1 2h-13.1c-1.2 0-2.1-0.9-2.1-2v-134.6c0-1.1 0.9-2 2.1-2h13.1c1.2 0 2.1 0.9 2.1 2v55.6c8.1-12.2 21.2-18.6 38.4-18.6 28.2 0 43 16.2 43 46.9z"/>
				<path id="&lt;Path&gt;" class="s0" d="m619.7 114.6c0 19.7-16.2 31-44.4 31-27.8 0-45.2-10.2-51.6-30.2-0.2-0.5-0.2-1.1 0.1-1.5 0.2-0.5 0.7-0.9 1.2-1l12.8-4.1c0.5-0.2 1-0.1 1.5 0.1 0.5 0.3 0.9 0.7 1 1.2 4.2 13.5 16.4 20.3 36.1 20.3 9.7 0 25.9-1.9 25.9-14.9 0-6.4-2.6-10.5-15.8-12.4l-30.2-3.6c-19.5-2.7-29.4-11.9-29.4-27.2 0-17.9 17-29.5 43.2-29.5 26.7 0 44 9.6 48.8 27.1 0.2 1.1-0.3 2.1-1.4 2.5l-12.8 4.1c-1 0.3-2.1-0.3-2.5-1.3-4.5-12.2-14.4-17.4-33-17.4-11.4 0-25.1 2.4-25.1 13.9 0 4.9 1.9 10.3 15.8 12.5l30.5 3.5c20 2.9 29.3 11.4 29.3 26.9z"/>
				<path id="&lt;Path&gt;" class="s0" d="m875.6 47.6c0-1 0.9-1.8 1.9-1.8h13.5c1 0 1.9 0.8 1.9 1.8v93.2c0 1-0.9 1.8-1.9 1.8h-13.5c-1 0-1.9-0.8-1.9-1.8z"/>
				<path id="&lt;Compound Path&gt;" fill-rule="evenodd" class="s0" d="m856.7 89.9v7.6c0 1.2-0.9 2.1-2.1 2.1h-85.1c1.3 19.5 14.1 30.2 36.3 30.2 17.1 0 29.1-6.8 34.7-19.7 0.2-0.5 0.6-0.9 1.2-1.1q0.8-0.3 1.5 0l11.3 5.1c0.5 0.2 0.9 0.6 1.1 1.1q0.3 0.7 0 1.5c-8.4 18.9-25.7 28.9-50.1 28.9-33.6 0-53.7-18.9-53.7-50.5 0-32.7 19.7-52.3 52.7-52.3 33.2 0 52.2 17.2 52.2 47.1zm-17.8-5c-0.6-17.3-13.4-27.7-34.4-27.7-20.4 0-33.4 10.3-34.9 27.7z"/>
				<path id="&lt;Path&gt;" class="s0" d="m874.5 13.9c0-0.9 0.7-1.6 1.6-1.6h16.3c0.9 0 1.6 0.7 1.6 1.6v17.7c0 0.8-0.7 1.5-1.6 1.5h-16.3c-0.9 0-1.6-0.7-1.6-1.5z"/>
				<path id="&lt;Path&gt;" class="s0" d="m1272 45.9v12.8c0 0.6-0.3 1.2-0.7 1.6-0.5 0.4-1.1 0.5-1.7 0.4-1.8-0.3-3.2-0.3-5.6-0.3-9.8 0-16.7 2.6-22.5 8.3-6.8 7-10 17.4-10 32.9v39c0 1.1-0.9 2-2 2h-13.2c-1.1 0-2-0.9-2-2v-92.8c0-1.1 0.9-2 2-2h12.3c1.1 0 2 0.9 2 2v15.2c6.7-12.5 18.3-19.6 32.3-19.6 2.7 0 5.1 0 7.6 0.6 0.9 0.2 1.5 1 1.5 1.9z"/>
				<path id="&lt;Compound Path&gt;" fill-rule="evenodd" class="s0" d="m260 89.9v7.6c0 1.2-0.9 2.1-2 2.1h-85.2c1.4 19.5 14.2 30.2 36.3 30.2 17.2 0 29.2-6.8 34.8-19.7 0.2-0.5 0.6-0.9 1.1-1.1q0.8-0.3 1.5 0l11.4 5.1c0.4 0.2 0.8 0.6 1 1.1q0.3 0.7 0 1.5c-8.4 18.9-25.7 28.9-50.1 28.9-33.6 0-53.7-18.9-53.7-50.5 0-32.7 19.7-52.3 52.7-52.3 33.2 0 52.2 17.2 52.2 47.1zm-17.8-5c-0.6-17.3-13.4-27.7-34.4-27.7-20.4 0-33.3 10.3-34.9 27.7z"/>
				<path id="&lt;Path&gt;" class="s0" d="m1075.6 85.7v54.9c0 1.1-0.9 2-2 2h-13.2c-1.1 0-2-0.9-2-2v-54c0-18.9-8-28.1-24.3-28.1-17.6 0-28.5 11.4-28.5 29.8v52.3c0 1.1-0.9 2-2 2h-13.2c-1.1 0-2-0.9-2-2v-54.6c0-12.5-4.2-27.5-24.1-27.5-17.4 0-28.6 12.6-28.6 32.2v49.9c0 1.1-0.9 2-2.1 2h-13.1c-1.2 0-2.1-0.9-2.1-2v-92.8c0-1.1 0.9-2 2.1-2h12.6c1.1 0 2 0.9 2 2v11.6c6.8-10.8 17.9-16.4 32.5-16.4 16.4 0 28.3 7.1 34 20.1 7.3-13 19.9-20.1 35.8-20.1 24.6 0 38.2 15.1 38.2 42.7z"/>
				<path id="&lt;Compound Path&gt;" fill-rule="evenodd" class="s0" d="m1195.3 89.9v7.6c0 1.2-0.9 2.1-2 2.1h-85.1c1.3 19.5 14.1 30.2 36.3 30.2 17.1 0 29.1-6.8 34.7-19.7 0.2-0.5 0.6-0.9 1.1-1.1 0.5-0.2 1.1-0.2 1.6 0l11.3 5.1c0.5 0.2 0.9 0.6 1.1 1.1 0.2 0.5 0.2 1-0.1 1.5-8.3 18.9-25.7 28.9-50.1 28.9-33.6 0-53.6-18.9-53.6-50.5 0-32.7 19.7-52.3 52.7-52.3 33.1 0 52.1 17.2 52.1 47.1zm-17.8-5c-0.6-17.3-13.3-27.7-34.3-27.7-20.5 0-33.4 10.3-35 27.7z"/>
				<path id="&lt;Path&gt;" class="s0" d="m336.6 45.9v12.8c0 0.6-0.2 1.2-0.7 1.6-0.4 0.4-1 0.5-1.6 0.4-1.9-0.3-3.2-0.3-5.6-0.3-9.8 0-16.8 2.6-22.5 8.3-6.8 7-10 17.4-10 32.9v39c0 1.1-0.9 2-2 2h-13.2c-1.1 0-2-0.9-2-2v-92.8c0-1.1 0.9-2 2-2h12.2c1.1 0 2.1 0.9 2.1 2v15.2c6.7-12.5 18.2-19.6 32.3-19.6 2.7 0 5 0 7.5 0.6 0.9 0.2 1.5 1 1.5 1.9z"/>
				<path id="&lt;Path&gt;" class="s0" d="m367.9 101.6v39c0 1.1-1 2-2.1 2h-13.1c-1.2 0-2.1-0.9-2.1-2v-92.8c0-1.1 0.9-2 2.1-2h12.2c1.1 0 2 0.9 2 2v15.2c6.8-12.5 18.3-19.6 32.3-19.6 0.6 0 4.1-0.1 4.6 0q2.5 0 4.8 0.3c0.5 0.1 1 0.3 1.3 0.6 0.5 0.4 0.7 0.9 0.8 1.5q0 0.1 0 0.2c0 0.6-0.3 1.1-0.6 1.5q-4.9 5.3-8.4 11.8 0 0-0.1 0c-0.3 0.7-1.1 1.1-1.9 1.1-9.4 0.2-16.2 2.7-21.9 8.3-6.8 7-9.9 17.4-9.9 32.9z"/>
			</g>
		</g>
	</g>
</svg>