<svg width="38" height="38" xmlns="http://www.w3.org/2000/svg" xmlns:xlink="http://www.w3.org/1999/xlink" overflow="hidden"><defs><clipPath id="clip0"><rect x="135" y="257" width="38" height="38"/></clipPath></defs><g clip-path="url(#clip0)" transform="translate(-135 -257)"><path d="M146.479 287.083 146.479 286.688 148.062 286.688C150.873 286.688 151.071 289.854 156.375 289.854L163.5 289.854C164.81 289.85 165.871 288.789 165.875 287.479 165.884 286.891 165.658 286.324 165.248 285.903 165.246 285.901 165.246 285.898 165.248 285.897 165.249 285.896 165.25 285.896 165.251 285.896L165.479 285.896C166.789 285.892 167.85 284.831 167.854 283.521 167.86 282.901 167.619 282.305 167.186 281.863 167.184 281.862 167.184 281.859 167.185 281.858 167.185 281.857 167.185 281.857 167.186 281.857 168.46 281.577 169.266 280.317 168.986 279.042 168.884 278.576 168.642 278.151 168.294 277.825 168.292 277.824 168.292 277.822 168.293 277.82 168.293 277.819 168.294 277.819 168.294 277.819 169.227 277.484 169.845 276.595 169.833 275.604 169.829 274.294 168.768 273.233 167.458 273.229L159.938 273.229C159.301 273.218 158.783 272.717 158.75 272.081 158.79 271.369 159.934 269.948 159.938 264.548 159.944 263.314 159.011 262.278 157.783 262.156 157.709 262.149 157.635 262.146 157.562 262.146 156.251 262.146 155.188 263.209 155.188 264.521 155.188 269.413 150.556 272.578 148.76 273.633 148.326 273.887 147.832 274.021 147.329 274.021L146.479 274.021 146.479 273.625C146.476 272.752 145.769 272.044 144.896 272.042L138.167 272.042 138.167 288.667 144.896 288.667C145.769 288.664 146.476 287.957 146.479 287.083ZM147.329 274.812C147.974 274.813 148.607 274.641 149.163 274.314 151.213 273.11 155.979 269.746 155.979 264.521 155.979 263.646 156.688 262.938 157.562 262.938 158.437 262.936 159.147 263.643 159.149 264.518 159.149 264.551 159.148 264.584 159.146 264.617 159.136 268.479 158.531 270.183 158.206 271.098 158.079 271.397 157.995 271.714 157.958 272.037 157.957 272.066 157.957 272.094 157.958 272.122 158.017 273.176 158.882 274.006 159.938 274.021L167.456 274.021C168.332 274.026 169.04 274.737 169.042 275.614 169.05 276.268 168.641 276.856 168.024 277.075 167.612 277.222 167.397 277.675 167.544 278.087 167.587 278.206 167.657 278.313 167.75 278.4 168.101 278.727 168.285 279.196 168.25 279.675 168.174 280.372 167.661 280.943 166.977 281.094 166.555 281.208 166.305 281.643 166.419 282.065 166.455 282.197 166.524 282.317 166.62 282.414 166.908 282.709 167.067 283.106 167.062 283.518 167.058 284.391 166.352 285.098 165.479 285.104L165.242 285.104C164.804 285.104 164.45 285.459 164.451 285.896 164.451 286.103 164.532 286.302 164.677 286.45 164.944 286.724 165.09 287.094 165.083 287.477 165.079 288.35 164.373 289.057 163.5 289.062L156.375 289.062C153.578 289.062 152.413 288.152 151.287 287.276 150.418 286.597 149.519 285.896 148.062 285.896L146.479 285.896 146.479 274.812ZM138.958 272.833 144.896 272.833C145.332 272.837 145.684 273.189 145.688 273.625L145.688 287.081C145.686 287.518 145.333 287.872 144.896 287.875L138.958 287.875Z" fill="#003E52"/></g></svg>